<svg id="Capa_1" data-name="Capa 1" xmlns="http://www.w3.org/2000/svg" viewBox="0 0 78.83 41.45"><defs><style>.cls-1{fill:#1262ad;}.cls-1,.cls-2,.cls-3,.cls-4,.cls-6,.cls-7{stroke:#fff;stroke-linejoin:bevel;}.cls-1,.cls-2,.cls-3,.cls-4{stroke-width:0.24px;}.cls-2{fill:#165494;}.cls-3{fill:#6698d0;}.cls-4,.cls-7{fill:#407cbf;}.cls-5{font-size:8.33px;fill:#fff;font-family:PlayPretend, Play Pretend;}.cls-6{fill:none;stroke-width:1.96px;}.cls-7{stroke-width:0.26px;}</style></defs><rect class="cls-1" x="3.6" y="23.95" width="35.28" height="11.76" transform="translate(-6.42 4.77) rotate(-12)"/><polygon class="cls-2" points="37.07 33.58 2.56 40.92 4.53 38.96 39.03 31.62 37.07 33.58"/><polygon class="cls-3" points="34.63 22.08 0.12 29.41 2.08 27.45 36.59 20.12 34.63 22.08"/><rect class="cls-4" x="1.64" y="25.91" width="35.28" height="11.76" transform="matrix(0.98, -0.21, 0.21, 0.98, -6.87, 4.41)"/><text class="cls-5" transform="translate(4.29 37.57) rotate(-12)">METAL</text><circle class="cls-6" cx="39.42" cy="15.05" r="8.33"/><path class="cls-7" d="M38.24,6.79a8.75,8.75,0,1,0,9.3,4A8.76,8.76,0,0,0,38.24,6.79Zm3,11.42a3.09,3.09,0,1,1,1.7-4A3.1,3.1,0,0,1,41.26,18.21Z" transform="translate(-0.68 -0.3)"/><path class="cls-1" d="M51.78,14.07a10.93,10.93,0,0,0-.26-1.48c1.27-1.26,2.22-3.41,1.54-4.94a3.27,3.27,0,0,1-2.65,2,12.49,12.49,0,0,0-.81-1.27c.69-1.65.75-4-.47-5.16a3.26,3.26,0,0,1-1.67,2.91,11.33,11.33,0,0,0-1.23-.86c0-1.79-.84-4-2.41-4.59a3.27,3.27,0,0,1-.43,3.33,12,12,0,0,0-1.47-.32c-.67-1.66-2.3-3.36-4-3.32a3.29,3.29,0,0,1,.88,3.24,10.66,10.66,0,0,0-1.48.26c-1.26-1.27-3.42-2.22-5-1.54A3.27,3.27,0,0,1,34.45,5a11.35,11.35,0,0,0-1.27.81c-1.65-.7-4-.75-5.15.46A3.29,3.29,0,0,1,30.94,8a10.54,10.54,0,0,0-.86,1.24c-1.79,0-4,.83-4.59,2.4a3.27,3.27,0,0,1,3.33.43,12,12,0,0,0-.33,1.47c-1.65.67-3.36,2.3-3.31,4a3.28,3.28,0,0,1,3.24-.87,11.21,11.21,0,0,0,.26,1.48c-1.27,1.26-2.23,3.41-1.55,4.94A3.29,3.29,0,0,1,29.79,21a11,11,0,0,0,.81,1.27c-.69,1.65-.75,4,.47,5.16a3.26,3.26,0,0,1,1.66-2.91c.4.31.81.59,1.24.86,0,1.79.84,4,2.4,4.58a3.28,3.28,0,0,1,.44-3.33,12.31,12.31,0,0,0,1.46.33c.68,1.66,2.3,3.36,4,3.32A3.29,3.29,0,0,1,41.37,27a12.42,12.42,0,0,0,1.48-.27C44.11,28,46.26,29,47.8,28.31a3.25,3.25,0,0,1-2-2.66A11.75,11.75,0,0,0,47,24.84c1.66.69,4,.75,5.16-.46a3.3,3.3,0,0,1-2.91-1.67,11.44,11.44,0,0,0,.86-1.24c1.79,0,4-.84,4.59-2.4a3.3,3.3,0,0,1-3.33-.43,10.4,10.4,0,0,0,.32-1.47c1.66-.68,3.37-2.3,3.32-4A3.26,3.26,0,0,1,51.78,14.07ZM45,23.26a9.31,9.31,0,1,1,4.2-9.89A9.32,9.32,0,0,1,45,23.26Z" transform="translate(-0.68 -0.3)"/><rect class="cls-1" x="41.29" y="25.16" width="37.29" height="11.76" transform="translate(7.08 -12.08) rotate(12)"/><polygon class="cls-2" points="73.55 41.33 37.07 33.58 39.79 32.62 76.27 40.37 73.55 41.33"/><polygon class="cls-3" points="76 29.83 39.52 22.08 42.24 21.11 78.71 28.86 76 29.83"/><rect class="cls-4" x="38.57" y="26.12" width="37.29" height="11.76" transform="translate(7.22 -11.49) rotate(12)"/><text class="cls-5" transform="translate(38.98 30.97) rotate(12) scale(1.06 1)">MINDER</text></svg>