<?xml version="1.0" encoding="utf-8"?>
<!-- Generator: Adobe Illustrator 25.4.1, SVG Export Plug-In . SVG Version: 6.00 Build 0)  -->
<svg version="1.1" id="Capa_1" xmlns="http://www.w3.org/2000/svg" xmlns:xlink="http://www.w3.org/1999/xlink" x="0px" y="0px"
	 viewBox="0 0 40 40" style="enable-background:new 0 0 40 40;" xml:space="preserve">
<style type="text/css">
	.st0{fill:none;stroke:#FFFFFF;stroke-width:2.6267;stroke-linejoin:bevel;stroke-miterlimit:10;}
	.st1{fill:#407CBF;stroke:#FFFFFF;stroke-width:0.3448;stroke-linejoin:bevel;stroke-miterlimit:10;}
	.st2{fill:#1262AD;stroke:#FFFFFF;stroke-width:0.3283;stroke-linejoin:bevel;stroke-miterlimit:10;}
</style>
<g>
	<circle class="st0" cx="20" cy="20" r="11.16"/>
	<g>
		<path class="st1" d="M17.51,8.54c-7.92,1.77-11.71,10.7-7.48,17.63c2.56,4.2,7.66,6.36,12.46,5.29
			c7.92-1.77,11.71-10.7,7.48-17.63C27.41,9.63,22.31,7.47,17.51,8.54z M21.55,23.84c-2.12,0.86-4.53-0.17-5.39-2.29
			s0.17-4.53,2.29-5.39c2.12-0.86,4.53,0.17,5.39,2.29C24.69,20.57,23.67,22.98,21.55,23.84z"/>
		<path class="st2" d="M35.66,18.29c-0.07-0.66-0.19-1.32-0.35-1.98c1.71-1.69,2.98-4.57,2.07-6.62c-0.48,1.36-1.85,2.52-3.56,2.75
			c-0.33-0.6-0.69-1.16-1.09-1.7c0.93-2.21,1.01-5.36-0.62-6.91c0.07,1.44-0.74,3.04-2.24,3.9c-0.53-0.42-1.08-0.8-1.66-1.15
			c0.01-2.4-1.12-5.34-3.22-6.15c0.62,1.3,0.48,3.09-0.58,4.46c-0.64-0.19-1.3-0.33-1.97-0.44c-0.91-2.22-3.08-4.5-5.33-4.45
			c1.07,0.96,1.63,2.67,1.17,4.34c-0.66,0.07-1.32,0.19-1.98,0.35c-1.69-1.71-4.57-2.98-6.62-2.07c1.36,0.48,2.52,1.85,2.75,3.56
			c-0.6,0.33-1.16,0.69-1.7,1.09C8.52,6.34,5.37,6.27,3.82,7.9c1.44-0.07,3.04,0.74,3.9,2.24c-0.42,0.53-0.8,1.08-1.15,1.66
			c-2.4-0.01-5.34,1.12-6.15,3.22c1.3-0.62,3.09-0.48,4.46,0.58c-0.19,0.64-0.33,1.3-0.44,1.97c-2.22,0.91-4.5,3.08-4.45,5.33
			c0.96-1.07,2.67-1.63,4.34-1.17c0.07,0.66,0.19,1.32,0.35,1.98c-1.71,1.69-2.98,4.57-2.07,6.62c0.48-1.36,1.85-2.52,3.56-2.75
			c0.33,0.6,0.69,1.16,1.09,1.7c-0.93,2.21-1.01,5.36,0.62,6.91c-0.07-1.44,0.74-3.04,2.24-3.9c0.53,0.42,1.08,0.8,1.66,1.15
			c-0.01,2.4,1.12,5.34,3.22,6.15c-0.62-1.3-0.48-3.09,0.58-4.46c0.64,0.19,1.3,0.33,1.97,0.44c0.91,2.22,3.08,4.5,5.33,4.45
			c-1.07-0.96-1.63-2.67-1.17-4.34c0.66-0.07,1.32-0.19,1.98-0.35c1.69,1.71,4.57,2.98,6.62,2.07c-1.36-0.48-2.52-1.85-2.75-3.56
			c0.6-0.33,1.16-0.69,1.7-1.09c2.21,0.93,5.36,1.01,6.91-0.62c-1.44,0.07-3.04-0.74-3.9-2.24c0.42-0.53,0.8-1.08,1.15-1.66
			c2.4,0.01,5.34-1.12,6.15-3.22c-1.3,0.62-3.09,0.48-4.46-0.58c0.19-0.64,0.33-1.3,0.44-1.97c2.22-0.91,4.5-3.08,4.45-5.33
			C39.03,18.19,37.33,18.74,35.66,18.29z M26.57,30.61c-7.38,4.5-16.88,0.47-18.77-7.97c-1.14-5.11,1.16-10.53,5.63-13.26
			c7.38-4.5,16.88-0.47,18.77,7.97C33.34,22.46,31.04,27.89,26.57,30.61z"/>
	</g>
</g>
</svg>
